HIERARCHY
ROOT pelvis
{
  OFFSET 0 100 0
  CHANNELS 6 Xposition Yposition Zposition Zrotation Xrotation Yrotation
  JOINT pelvis_right_femur
  {
    OFFSET -10.78128 -3.44521 -0.5502486
    CHANNELS 3 Zrotation Xrotation Yrotation
    JOINT right_femur_tibia
    {
      OFFSET -0.8047443 -44.0398 -0.1307829
      CHANNELS 3 Zrotation Xrotation Yrotation
      JOINT right_tibia_foot
      {
        OFFSET 3.006224 -47.83518 -5
        CHANNELS 3 Zrotation Xrotation Yrotation
        End Site
        {
          OFFSET 0 -5 15
        }
      }
    }
  }
  JOINT pelvis_left_femur
  {
    OFFSET 10.78128 -3.44521 -0.5502486
    CHANNELS 3 Zrotation Xrotation Yrotation
    JOINT left_femur_tibia
    {
      OFFSET 0.8047443 -44.0398 -0.1307829
      CHANNELS 3 Zrotation Xrotation Yrotation
      JOINT left_tibia_foot
      {
        OFFSET -4.370144 -48.10324 -4.275266
        CHANNELS 3 Zrotation Xrotation Yrotation
        End Site
        {
          OFFSET 0 -5 15
        }
      }
    }
  }
  JOINT pelvis_spine1
  {
    OFFSET 0 6.468898 -3.129235
    CHANNELS 3 Zrotation Xrotation Yrotation
    JOINT spine1
    {
      OFFSET 0 23.15396 4.99043
      CHANNELS 3 Zrotation Xrotation Yrotation
      JOINT spine2
      {
        OFFSET 0 20.79997 -5.064912
        CHANNELS 3 Zrotation Xrotation Yrotation
        JOINT neck
        {
          OFFSET 0 14.38658 9.616178
          CHANNELS 3 Zrotation Xrotation Yrotation
          End Site
          {
            OFFSET 0 20 0
          }
        }
      }
      JOINT right_manubrium
      {
        OFFSET -5.722621 16.35077 3.967754
        CHANNELS 3 Zrotation Xrotation Yrotation
        JOINT right_clavicle
        {
          OFFSET -13.16364 1.694482 -4.693211
          CHANNELS 3 Zrotation Xrotation Yrotation
          JOINT right_humerus
          {
            OFFSET -28.5034 -0.3100689 -2.792744
            CHANNELS 3 Zrotation Xrotation Yrotation
            JOINT right_radius
            {
              OFFSET -25.15693 0.02248979 -1.271978
              CHANNELS 3 Zrotation Xrotation Yrotation
              End Site
              {
                OFFSET -15 0 0
              }
            }
          }
        }
      }
      JOINT left_manubrium
      {
        OFFSET 5.722621 16.35077 3.967754
        CHANNELS 3 Zrotation Xrotation Yrotation
        JOINT left_clavicle
        {
          OFFSET 13.16364 1.694482 -4.693211
          CHANNELS 3 Zrotation Xrotation Yrotation
          JOINT left_humerus
          {
            OFFSET 29.39168 -1.063119 -2.237045
            CHANNELS 3 Zrotation Xrotation Yrotation
            JOINT left_radius
            {
              OFFSET 24.59957 -0.9528479 0.9047498
              CHANNELS 3 Zrotation Xrotation Yrotation
              End Site
              {
                OFFSET 15 -0 -0
              }
            }
          }
        }
      }
    }
  }
}
MOTION
Frames: 21
Frame Time: 0.0416666666667
0 103.5113 0 2.175184 -1.173301 0.2645087 1.237698 -10.12607 8.698735 -0 34.24052 -0 -5.279705 -17.89524 -2.294421 -8.028523 10.08444 -23.4819 -0 5.15208 -0 7.671801 -16.16983 26.55214 -4.342838 -5.043365 4.958733 2.03235 9.207112 -7.744816 0.8402926 22.79591 7.172654 3.260844 -23.11194 8.802165 6.372132 -19.75833 11.57193 86.3075 35.9453 -19.79048 -0 0 16.25494 -7.582011 8.24681 4.622862 5.506964 -19.47074 -1.708708 -94.78983 29.75408 22.90838 0 0 -16.00029 3.495918 17.89937 9.570649
0.3551737 103.4328 1.380522 2.016095 -0.9953519 0.4077017 1.481086 -11.18158 8.515714 -0 33.25447 -0 -5.345635 -17.34968 -2.15349 -7.882782 10.19731 -23.311 -0 5.241682 -0 7.521751 -16.47474 26.32747 -4.292042 -4.832116 4.919523 2.146309 9.159642 -7.764473 0.8758073 22.65292 7.18529 3.306901 -23.26562 8.819225 6.350314 -19.69458 11.5654 86.29098 35.9222 -19.83892 -0 0 16.15072 -7.629939 8.287146 4.654686 5.604108 -19.50149 -1.732556 -94.70373 29.72515 22.71307 0 0 -16.31056 3.542056 17.8032 9.556094
0.7409955 103.2866 2.878578 1.812435 -0.7123176 0.4569963 1.774583 -12.64204 8.211797 -0 31.28826 -0 -5.423577 -16.4876 -1.827961 -7.707134 10.33879 -23.03255 -0 5.417837 -0 7.296728 -16.91392 25.97484 -4.239799 -4.54197 4.893075 2.313672 9.084255 -7.774639 0.9358077 22.43556 7.196595 3.379478 -23.48195 8.838506 6.304214 -19.58426 11.55543 86.28062 35.88905 -19.92064 -0 0 15.97816 -7.699167 8.348569 4.698087 5.770667 -19.56272 -1.756541 -94.56806 29.67907 22.39561 0 0 -16.79905 3.610434 17.66504 9.513529
1.165272 103.0356 4.544476 1.609426 -0.310203 0.4220751 2.044072 -14.36346 7.772459 -0 28.04182 -0 -5.495996 -15.28005 -1.262773 -7.55025 10.4985 -22.62162 -0 5.738023 -0 6.989378 -17.46521 25.46552 -4.20246 -4.208564 4.902306 2.511899 8.980024 -7.754219 1.026223 22.15819 7.198992 3.47899 -23.74303 8.857276 6.21825 -19.41152 11.53586 86.29987 35.84643 -20.04595 -0 0 15.72214 -7.788863 8.433174 4.751215 6.010314 -19.67361 -1.766244 -94.36778 29.61612 21.94136 0 0 -17.4596 3.695383 17.48686 9.432902
1.630844 102.6455 6.433228 1.442533 0.2123251 0.3412908 2.234793 -16.1817 7.196699 -0 23.44165 -0 -5.561215 -13.75151 -0.4502154 -7.445796 10.67027 -22.06266 -0 6.267859 -0 6.584094 -18.08585 24.77078 -4.184538 -3.868938 4.955155 2.715896 8.849204 -7.694458 1.145355 21.84148 7.189072 3.601719 -24.02832 8.872236 6.084358 -19.16715 11.50034 86.37119 35.79532 -20.2222 -0 0 15.37286 -7.897922 8.543276 4.813369 6.310108 -19.84211 -1.752635 -94.09627 29.53441 21.35797 0 0 -18.25554 3.788921 17.26984 9.31559
2.134099 102.1075 8.607588 1.320552 0.8308738 0.2702766 2.344425 -17.87647 6.5179 -0 17.8741 -0 -5.641652 -12.05142 0.5323428 -7.389369 10.85305 -21.35853 -0 7.108043 -0 6.042403 -18.67828 23.85677 -4.162038 -3.563474 5.025169 2.899359 8.699486 -7.618212 1.272673 21.51613 7.173427 3.734874 -24.31108 8.876323 5.912553 -18.85552 11.44244 86.51567 35.73821 -20.45212 -0 0 14.92795 -8.024289 8.68275 4.886068 6.620558 -20.04766 -1.721265 -93.76812 29.42579 20.70321 0 0 -19.08308 3.878623 17.01281 9.187989
2.664622 101.4548 11.14172 1.232649 1.50406 0.2741864 2.410819 -19.17644 5.797203 -0 12.02353 -0 -5.765361 -10.41156 1.556962 -7.350892 11.04359 -20.52235 -0 8.403949 -0 5.307774 -19.09356 22.68193 -4.089741 -3.336107 5.064344 3.035023 8.541617 -7.568257 1.375331 21.21933 7.16417 3.859266 -24.55961 8.858592 5.724487 -18.48799 11.35625 86.7543 35.67895 -20.73624 -0 0 14.38762 -8.166072 8.857305 4.972638 6.866661 -20.25024 -1.688018 -93.41198 29.27822 20.06845 0 0 -19.79321 3.948751 16.71249 9.092875
3.209639 100.7533 14.10758 1.154419 2.185569 0.4074344 2.477752 -19.87007 5.101411 -0 6.516564 -0 -5.954066 -9.009465 2.516248 -7.293358 11.20273 -19.57921 -0 10.30561 -0 4.340075 -19.16231 21.23145 -3.925768 -3.211346 5.044704 3.111558 8.385251 -7.570582 1.430075 20.97401 7.166246 3.958766 -24.75143 8.807677 5.54037 -18.07652 11.24742 87.08791 35.62091 -21.06656 -0 0 13.76024 -8.325252 9.070332 5.076665 6.991663 -20.41136 -1.66848 -93.06204 29.08335 19.53202 0 0 -20.2803 3.987682 16.36918 9.059672
3.757296 100.0969 17.55454 1.046418 2.813063 0.6846511 2.586254 -19.75351 4.513172 -0 1.976682 -0 -6.238648 -7.972508 3.316243 -7.164649 11.21728 -18.56895 -0 13.04909 -0 3.107282 -18.63086 19.51651 -3.623866 -3.195256 4.967988 3.136184 8.240498 -7.626612 1.423286 20.78842 7.173726 4.018491 -24.86972 8.707463 5.379587 -17.63119 11.14029 87.49184 35.56882 -21.42328 -0 0 13.06185 -8.511859 9.324593 5.203771 6.953248 -20.48825 -1.677946 -92.76611 28.83452 19.16684 0 0 -20.47992 3.985436 15.98638 9.103496
4.298538 99.59799 21.50001 0.8801504 3.314919 1.070791 2.760796 -18.66026 4.100819 0 -1.122263 0 -6.640045 -7.389693 3.88998 -6.92204 10.93574 -17.53346 -0 16.87122 -0 1.626097 -17.2587 17.59836 -3.154875 -3.277813 4.860861 3.12168 8.120522 -7.717635 1.349622 20.66667 7.175244 4.027363 -24.89876 8.541911 5.258246 -17.16452 11.06676 87.92686 35.52828 -21.77387 -0 0 12.31685 -8.740512 9.621448 5.36154 6.728389 -20.44787 -1.726354 -92.56598 28.52779 19.02551 0 0 -20.36624 3.936059 15.56967 9.227292
4.831042 99.35311 25.9199 0.6831728 3.607183 1.489525 2.973191 -16.54615 3.862755 0 -2.826028 0 -7.127478 -7.299868 4.245581 -6.591373 10.16732 -16.50249 -0 21.87512 -0 0.02678005 -15.00101 15.63512 -2.560936 -3.41468 4.795767 3.07168 8.050966 -7.788245 1.218947 20.62276 7.155874 3.98561 -24.81586 8.302081 5.184504 -16.70452 11.05959 88.33525 35.50568 -22.05152 -0 0 11.57345 -9.030828 9.957761 5.562097 6.341478 -20.29956 -1.806167 -92.4629 28.16483 19.09847 0 0 -19.98962 3.8457 15.1285 9.41233
5.360772 99.40934 30.72836 0.5444991 3.573354 1.826792 3.13958 -13.42839 3.740482 0 -3.63971 0 -7.620195 -7.726919 4.456648 -6.267635 8.620202 -15.49836 -0 28.09081 -0 -1.481074 -11.99125 13.85836 -1.958014 -3.520661 4.901132 2.978003 8.076087 -7.738023 1.054784 20.68833 7.094359 3.902769 -24.58116 7.981377 5.162277 -16.30109 11.15942 88.62851 35.5114 -22.13797 -0 0 10.91308 -9.414949 10.32723 5.826999 5.859649 -20.09194 -1.893268 -92.42212 27.74947 19.32366 0 0 -19.47034 3.730877 14.67613 9.619777
5.893552 99.7694 35.79231 0.5544086 3.145566 1.965815 3.174811 -9.38532 3.672158 0 -4.102523 0 -8.037028 -8.648102 4.603242 -6.022238 6.072276 -14.53574 -0 35.31656 -0 -2.729226 -8.502403 12.45404 -1.464946 -3.523329 5.268328 2.830929 8.222842 -7.49527 0.8826703 20.88657 6.97515 3.79298 -24.16722 7.582403 5.185576 -16.00732 11.38319 88.72184 35.55295 -21.92479 -0 0 10.41668 -9.925291 10.71989 6.176579 5.354975 -19.8759 -1.962099 -92.40102 27.28706 19.6333 0 0 -18.92608 3.609801 14.22433 9.812664
6.429465 100.3955 40.969 0.7790455 2.355776 1.85652 2.997594 -4.567288 3.60637 0 -4.611808 0 -8.304858 -9.954153 4.754172 -5.854719 2.436334 -13.61696 -0 42.82884 -0 -3.609022 -5.032802 11.54885 -1.190234 -3.393651 5.897837 2.621758 8.474855 -7.064058 0.7295039 21.21868 6.793159 3.674704 -23.57365 7.12329 5.228898 -15.88855 11.69535 88.52552 35.6293 -21.31811 -0 0 10.1709 -10.60215 11.11887 6.630864 4.898985 -19.68988 -1.986783 -92.35446 26.78448 19.97122 0 0 -18.44703 3.502277 13.78081 9.962636
6.968756 101.1997 46.13273 1.259574 1.297285 1.555906 2.534409 0.832699 3.508155 0 -5.467256 0 -8.350678 -11.48497 4.974952 -5.719431 -2.291089 -12.73075 -0 49.53128 -0 -4.050966 -2.2119 11.23372 -1.233867 -3.13568 6.733393 2.342659 8.787669 -6.495782 0.6227779 21.67003 6.549992 3.567555 -22.81662 6.631946 5.253472 -16.02084 12.02767 87.94095 35.72917 -20.22471 -0 0 10.27357 -11.49478 11.50151 7.212318 4.56413 -19.56221 -1.94122 -92.23774 26.24961 20.29152 0 0 -18.10452 3.427848 13.35036 10.04777
7.517948 102.0561 51.19399 1.952788 0.09294462 1.178428 1.805989 6.576998 3.390087 0 -6.750766 0 -8.142782 -13.11181 5.29635 -5.547261 -7.913763 -11.84548 -0 54.49489 -0 -4.078132 -0.3522958 11.51215 -1.59562 -2.793635 7.686503 1.997586 9.11339 -5.852212 0.5707379 22.19888 6.261957 3.479079 -21.9338 6.139829 5.223076 -16.43141 12.32507 86.93861 35.82443 -18.62361 -0 0 10.77813 -12.62132 11.84713 7.929405 4.385997 -19.48977 -1.819421 -92.04245 25.6934 20.58283 0 0 -17.90928 3.387455 12.93374 10.06971
8.090744 102.8134 56.12109 2.70225 -1.07563 0.8107387 0.9595993 12.32459 3.283677 0 -8.303309 0 -7.694244 -14.74376 5.704267 -5.232607 -13.95201 -10.88007 -0 56.80998 -0 -3.797941 0.636776 12.33399 -2.135853 -2.459994 8.617689 1.606404 9.397279 -5.20635 0.555015 22.71873 5.969525 3.398928 -20.99303 5.689301 5.093118 -17.0909 12.54631 85.56678 35.8673 -16.57188 -0 0 11.70558 -13.96845 12.13641 8.77821 4.362605 -19.42571 -1.639687 -91.8076 25.13284 20.87569 0 0 -17.79615 3.355132 12.52626 10.06156
8.706969 103.3103 60.94347 3.331611 -2.029174 0.4720176 0.1724898 17.73184 3.196255 0 -9.866904 0 -7.040704 -16.31413 6.164457 -4.666665 -19.84944 -9.732697 -0 55.80344 -0 -3.333244 1.014996 13.61851 -2.673655 -2.22579 9.387861 1.1967 9.593556 -4.625849 0.5482152 23.13637 5.718383 3.310431 -20.06885 5.321311 4.828373 -17.94268 12.66311 83.91819 35.80792 -14.17324 -0 0 13.04404 -15.50239 12.35341 9.743196 4.468552 -19.31341 -1.431282 -91.58583 24.5866 21.21065 0 0 -17.67181 3.296911 12.12186 10.06682
9.391447 103.4243 65.72807 3.747425 -2.691113 0.1388628 -0.4582946 22.58956 3.123768 0 -11.17504 0 -6.22726 -17.77267 6.644482 -3.82098 -25.18278 -8.375274 -0 51.63149 -0 -2.765995 1.017033 15.20906 -3.100591 -2.127324 9.940741 0.7978928 9.69445 -4.14611 0.5363007 23.39936 5.534634 3.207645 -19.21983 5.057557 4.447818 -18.91418 12.67535 82.12324 35.61637 -11.58134 -0 0 14.70362 -17.16039 12.49237 10.78459 4.648502 -19.12877 -1.227942 -91.4097 24.07115 21.60388 0 0 -17.45309 3.18956 11.71821 10.12106
10.17013 103.1296 70.55794 3.91819 -3.066218 -0.2293432 -0.9073924 26.76892 3.079687 0 -11.90425 0 -5.306586 -19.0602 7.10926 -2.785688 -29.58373 -6.901692 -0 45.16735 -0 -2.151812 0.8393119 16.85544 -3.371737 -2.163605 10.28892 0.4436504 9.723989 -3.780238 0.5197632 23.48271 5.430122 3.096877 -18.5004 4.908388 4.026045 -19.91185 12.60806 80.35241 35.28826 -9.009252 -0 0 16.51538 -18.84897 12.55936 11.83674 4.813933 -18.87554 -1.071485 -91.29678 23.60425 22.05034 0 0 -17.05212 3.015103 11.31549 10.25975
11.06254 102.493 75.51761 3.87256 -3.202975 -0.67143 -1.219484 30.20717 3.095359 0 -11.77999 0 -4.327544 -20.07217 7.525108 -1.74564 -32.81759 -5.495759 -0 37.50899 -0 -1.527134 0.6049602 18.3453 -3.503706 -2.322569 10.47798 0.1548872 9.716624 -3.524869 0.5082196 23.39168 5.402838 2.990391 -17.94092 4.871691 3.64115 -20.84656 12.48958 78.76308 34.84743 -6.660428 -0 0 18.30407 -20.48062 12.57049 12.83606 4.89412 -18.56917 -0.9900677 -91.25095 23.19801 22.53371 0 0 -16.41727 2.765547 10.91503 10.50315
